<svg width="24" height="24" viewBox="0 0 24 24" fill="none" xmlns="http://www.w3.org/2000/svg">
  <g id="Iconly/Light-Outline/More Square">
    <g id="More Square">
      <path id="Fill 1" fill-rule="evenodd" clip-rule="evenodd"
        d="M7.665 3.5C5.135 3.5 3.5 5.233 3.5 7.916V16.084C3.5 18.767 5.135 20.5 7.665 20.5H16.333C18.864 20.5 20.5 18.767 20.5 16.084V7.916C20.5 5.233 18.864 3.5 16.334 3.5H7.665ZM16.333 22H7.665C4.276 22 2 19.622 2 16.084V7.916C2 4.378 4.276 2 7.665 2H16.334C19.723 2 22 4.378 22 7.916V16.084C22 19.622 19.723 22 16.333 22Z"
        fill="white" />
      <path id="Fill 3" fill-rule="evenodd" clip-rule="evenodd"
        d="M15.9482 13.0137C15.3952 13.0137 14.9432 12.5667 14.9432 12.0137C14.9432 11.4607 15.3862 11.0137 15.9382 11.0137H15.9482C16.5012 11.0137 16.9482 11.4607 16.9482 12.0137C16.9482 12.5667 16.5012 13.0137 15.9482 13.0137Z"
        fill="white" />
      <path id="Fill 5" fill-rule="evenodd" clip-rule="evenodd"
        d="M11.9385 13.0137C11.3855 13.0137 10.9345 12.5667 10.9345 12.0137C10.9345 11.4607 11.3765 11.0137 11.9295 11.0137H11.9385C12.4915 11.0137 12.9385 11.4607 12.9385 12.0137C12.9385 12.5667 12.4915 13.0137 11.9385 13.0137Z"
        fill="white" />
      <path id="Fill 7" fill-rule="evenodd" clip-rule="evenodd"
        d="M7.9297 13.0137C7.3767 13.0137 6.9247 12.5667 6.9247 12.0137C6.9247 11.4607 7.3677 11.0137 7.9207 11.0137H7.9297C8.4827 11.0137 8.9297 11.4607 8.9297 12.0137C8.9297 12.5667 8.4827 13.0137 7.9297 13.0137Z"
        fill="white" />
    </g>
  </g>
</svg>